<svg width="50" height="50" viewBox="0 0 50 50" fill="none" xmlns="http://www.w3.org/2000/svg">
<g clip-path="url(#clip0_1708_1396)">
<path d="M25 50C38.8071 50 50 38.8071 50 25C50 11.1929 38.8071 0 25 0C11.1929 0 0 11.1929 0 25C0 38.8071 11.1929 50 25 50Z" fill="#042548"/>
<path d="M20.5 27C20.2239 27 20 26.8477 20 26.6597V22.3403C20 22.1523 20.2239 22 20.5 22C20.7761 22 21 22.1523 21 22.3403V26.6597C21 26.8477 20.7762 27 20.5 27Z" fill="#FF51FF"/>
<path d="M25.6839 27.0405C25.4078 27.0405 25.1839 26.8991 25.1839 26.7246V24.0087C25.1839 23.8342 25.4078 23.6928 25.6839 23.6928C25.96 23.6928 26.1839 23.8342 26.1839 24.0087V26.7246C26.184 26.8991 25.96 27.0405 25.6839 27.0405Z" fill="#FF51FF"/>
<path d="M30.5 27C30.2239 27 30 26.8477 30 26.6597V22.3403C30 22.1523 30.2239 22 30.5 22C30.7761 22 31 22.1523 31 22.3403V26.6597C31 26.8477 30.7761 27 30.5 27Z" fill="#FF51FF"/>
<path d="M37.5 27.0405C37.2239 27.0405 37 26.8991 37 26.7246V20.7093C37 20.5348 37.2239 20.3934 37.5 20.3934C37.7761 20.3934 38 20.5348 38 20.7093V26.7246C38 26.8991 37.7761 27.0405 37.5 27.0405Z" fill="#FF51FF"/>
<path d="M13.5101 27.0405C13.234 27.0405 13.0101 26.8991 13.0101 26.7246V20.7093C13.0101 20.5348 13.234 20.3934 13.5101 20.3934C13.7862 20.3934 14.0101 20.5348 14.0101 20.7093V26.7246C14.0102 26.8991 13.7863 27.0405 13.5101 27.0405Z" fill="#FF51FF"/>
<path d="M16.3 19.647C16.0239 19.647 15.8 19.5057 15.8 19.3312V13.3158C15.8 13.1414 16.0239 13 16.3 13C16.5761 13 16.8 13.1414 16.8 13.3158V19.3312C16.8001 19.5057 16.5762 19.647 16.3 19.647Z" fill="#00F6D2"/>
<path d="M34.7 19.647C34.4239 19.647 34.2 19.5057 34.2 19.3312V13.3158C34.2 13.1414 34.4239 13 34.7 13C34.9761 13 35.2 13.1414 35.2 13.3158V19.3312C35.2001 19.5057 34.9762 19.647 34.7 19.647Z" fill="#00F6D2"/>
<path d="M11.4308 26.091H13.6406H15.2416H17.2698H33.7303H35.7584H37.3594H39.5692L39.5694 27.8305H35.758H33.7303H17.2698H15.2419H11.4307" fill="#00E2C2"/>
<path d="M25.4999 24.092C20.8684 24.092 17.0742 20.4382 16.8492 15.8613H15.6626C15.5798 17.5677 15.0048 19.1861 13.9871 20.5653C13.3496 21.4303 12.5674 22.1614 11.6622 22.7384C11.4616 22.8662 11.1954 22.8073 11.0675 22.6066C10.9397 22.406 10.9987 22.1397 11.1993 22.0119C12.0147 21.4923 12.7194 20.8335 13.2939 20.0541C14.2869 18.7082 14.8117 17.1096 14.8117 15.4307C14.8117 15.1929 15.0045 15 15.2424 15H17.2694C17.3837 15 17.4932 15.0454 17.574 15.1261C17.6547 15.2069 17.7001 15.3164 17.7001 15.4307C17.7001 19.7316 21.1992 23.2306 25.5001 23.2306C29.8009 23.2306 33.2999 19.7316 33.2999 15.4307C33.2999 15.3164 33.3453 15.2069 33.426 15.1261C33.5068 15.0453 33.6163 15 33.7306 15H35.7576C35.9955 15 36.1883 15.1929 36.1883 15.4307C36.1883 17.1096 36.7131 18.7084 37.706 20.0539C38.2806 20.8336 38.9853 21.4923 39.8007 22.0119C40.0012 22.1397 40.0603 22.406 39.9325 22.6066C39.8045 22.8072 39.5384 22.8662 39.3378 22.7384C38.4326 22.1616 37.6504 21.4304 37.0128 20.5651C35.9952 19.1861 35.4203 17.5678 35.3374 15.8613H34.1507C33.9257 20.4382 30.1315 24.092 25.4999 24.092Z" fill="#00F6D2" stroke="#00F6D2" stroke-width="0.3"/>
<path d="M17.3642 15H15.2588C15.0119 15 14.8115 15.193 14.8115 15.4307V31.4077C14.8115 31.6454 15.0119 31.8384 15.2588 31.8384H17.3642C17.6111 31.8384 17.8115 31.6454 17.8115 31.4077V15.4307C17.8115 15.193 17.6111 15 17.3642 15Z" fill="#00F6D2"/>
<path d="M18.1496 35.7691V31.766C18.1496 31.5683 17.9893 31.4081 17.7917 31.4081H14.72C14.5223 31.4081 14.3621 31.5684 14.3621 31.766V35.7691" fill="#D8D8D6"/>
<path d="M35.8524 15H33.7471C33.5002 15 33.2997 15.193 33.2997 15.4307V31.4077C33.2997 31.6454 33.5002 31.8384 33.7471 31.8384H35.8524C36.0993 31.8384 36.2997 31.6454 36.2997 31.4077V15.4307C36.2997 15.193 36.0994 15 35.8524 15Z" fill="#00F6D2"/>
<path d="M36.638 35.7691V31.766C36.638 31.5683 36.4777 31.4081 36.2801 31.4081H33.2085C33.0107 31.4081 32.8506 31.5684 32.8506 31.766V35.7691" fill="#D8D8D6"/>
<path d="M39.5691 36.9176C37.8107 36.9176 37.8107 35.7691 36.0518 35.7691C34.4272 35.7691 34.3032 36.7488 32.9083 36.8981C32.7929 36.9107 32.6688 36.9176 32.5345 36.9176C30.7755 36.9176 30.7755 35.7691 29.0172 35.7691C27.2582 35.7691 27.2582 36.9176 25.4999 36.9176C23.7415 36.9176 23.7415 35.7691 21.9825 35.7691C20.2241 35.7691 20.2241 36.9176 18.4658 36.9176C18.3315 36.9176 18.2074 36.9107 18.092 36.8981C16.6965 36.7488 16.5725 35.7691 14.9485 35.7691C13.1901 35.7691 13.1901 36.9176 11.4312 36.9176V34.9597C13.1901 34.9597 13.1901 33.8112 14.9485 33.8112C16.5725 33.8112 16.6965 34.7909 18.092 34.9402C18.2074 34.9528 18.3315 34.9597 18.4658 34.9597C20.2242 34.9597 20.2242 33.8112 21.9825 33.8112C23.7415 33.8112 23.7415 34.9597 25.4999 34.9597C27.2582 34.9597 27.2583 33.8112 29.0172 33.8112C30.7756 33.8112 30.7756 34.9597 32.5345 34.9597C32.6688 34.9597 32.7929 34.9528 32.9083 34.9402C34.3032 34.7909 34.4272 33.8112 36.0518 33.8112C37.8108 33.8112 37.8108 34.9597 39.5691 34.9597V36.9176Z" fill="#1094FF"/>
</g>
<defs>
<clipPath id="clip0_1708_1396">
<rect width="50" height="50" fill="white"/>
</clipPath>
</defs>
</svg>
